<svg id="svg" xmlns="http://www.w3.org/2000/svg" xmlns:xlink="http://www.w3.org/1999/xlink" width="400" height="75.74206755373594" viewBox="0, 0, 400,75.74206755373594"><g id="svgg"><path id="path0" d="M36.643 5.283 C 35.742 5.701,32.518 7.844,29.478 10.045 C 22.497 15.099,21.529 15.787,12.078 22.415 C 7.799 25.415,3.884 28.457,3.378 29.174 C 1.058 32.459,3.379 36.835,7.452 36.854 C 10.130 36.866,10.010 36.219,10.235 51.909 L 10.440 66.183 11.457 67.665 C 15.103 72.984,25.968 72.294,36.982 66.045 L 40.250 64.190 41.722 65.067 C 55.377 73.199,67.945 73.335,69.950 65.371 C 70.254 64.165,70.420 58.950,70.420 50.601 C 70.420 36.109,70.254 36.847,73.504 36.847 C 75.900 36.847,77.789 34.707,77.789 31.993 C 77.789 29.592,76.608 28.140,72.198 25.121 C 69.257 23.108,69.191 22.903,69.191 15.771 C 69.191 8.841,68.972 8.598,62.715 8.598 C 57.578 8.598,56.329 9.160,55.855 11.686 C 55.518 13.484,56.013 13.671,50.226 9.558 C 42.823 4.296,40.404 3.535,36.643 5.283 M45.476 10.525 C 55.595 17.563,56.684 18.153,57.974 17.292 C 58.804 16.737,59.365 15.216,59.365 13.520 L 59.365 11.839 62.538 11.958 L 65.711 12.078 65.916 18.034 C 66.159 25.109,66.214 25.227,70.633 28.282 C 73.320 30.140,74.514 31.309,74.514 32.083 C 74.514 32.743,73.027 33.572,71.843 33.572 C 67.169 33.572,66.980 34.227,66.735 51.319 L 66.530 65.586 65.302 66.597 C 62.484 68.916,53.200 67.433,45.957 63.505 C 42.836 61.812,42.812 62.055,46.343 59.570 C 56.709 52.276,61.456 45.818,61.541 38.895 C 61.680 27.612,50.195 21.360,41.896 28.200 L 40.389 29.442 38.516 28.071 C 30.056 21.877,19.414 27.086,18.913 37.666 C 18.564 45.040,22.328 50.731,32.753 58.590 C 37.474 62.149,37.325 61.769,34.647 63.392 C 30.101 66.147,25.315 67.542,20.388 67.549 C 13.414 67.558,13.511 67.794,13.511 50.795 C 13.511 34.688,13.184 33.572,8.464 33.572 C 6.806 33.572,5.949 32.720,6.306 31.428 C 6.479 30.807,10.291 27.871,17.877 22.518 C 24.100 18.127,31.197 13.118,33.649 11.387 C 39.619 7.171,40.557 7.103,45.476 10.525 M33.006 29.265 C 34.127 29.598,36.117 30.703,37.428 31.721 C 40.346 33.987,40.009 33.996,43.222 31.563 C 53.948 23.443,63.359 36.274,54.807 47.359 C 52.860 49.882,49.123 53.240,44.422 56.690 C 42.620 58.012,40.925 59.262,40.653 59.469 C 40.325 59.718,39.641 59.445,38.606 58.650 C 37.752 57.993,35.625 56.386,33.880 55.079 C 20.834 45.304,18.180 32.427,28.548 29.202 C 30.598 28.565,30.651 28.565,33.006 29.265 M180.757 32.706 C 177.652 33.769,176.380 35.321,176.129 38.352 C 175.785 42.490,177.351 44.303,183.958 47.419 C 190.239 50.382,191.818 53.507,188.639 56.682 C 185.039 60.276,179.171 58.140,177.425 52.600 C 176.287 48.989,175.640 49.660,175.640 54.452 C 175.640 57.819,175.749 58.547,176.254 58.547 C 176.592 58.547,176.871 58.316,176.874 58.035 C 176.892 56.574,177.602 56.356,178.868 57.421 C 184.630 62.269,193.280 58.422,192.761 51.242 C 192.494 47.561,191.488 46.512,185.266 43.433 C 179.452 40.555,178.301 39.405,178.677 36.847 C 179.450 31.585,187.966 32.971,189.368 38.588 C 189.986 41.066,190.788 39.853,190.788 36.438 C 190.788 33.800,190.669 33.163,190.174 33.163 C 189.836 33.163,189.560 33.428,189.560 33.753 C 189.560 34.714,188.745 34.931,187.924 34.187 C 186.317 32.733,182.800 32.006,180.757 32.706 M222.016 32.763 C 218.733 33.489,217.309 35.576,216.997 40.123 L 216.786 43.193 215.251 43.321 C 213.198 43.490,213.281 44.217,215.353 44.217 L 216.991 44.217 216.985 50.051 C 216.978 56.341,216.614 57.837,215.036 58.063 C 212.566 58.418,214.608 58.956,218.424 58.956 C 221.017 58.956,222.723 58.794,222.723 58.547 C 222.723 58.321,222.299 58.137,221.781 58.137 C 220.012 58.137,219.857 57.535,219.857 50.686 L 219.857 44.217 221.265 44.217 C 222.040 44.217,222.788 44.033,222.927 43.808 C 223.080 43.560,222.522 43.398,221.519 43.398 L 219.857 43.398 219.857 39.564 C 219.857 33.447,222.207 31.648,225.516 35.231 C 227.253 37.113,228.597 37.145,228.374 35.300 C 228.139 33.352,225.007 32.102,222.016 32.763 M326.714 33.236 C 320.273 36.559,322.074 42.933,330.633 47.113 C 337.154 50.298,338.536 52.218,336.766 55.640 C 334.207 60.589,326.524 58.651,324.640 52.582 C 323.579 49.168,323.030 49.795,323.030 54.418 C 323.030 58.550,323.457 59.630,324.258 57.523 C 324.712 56.329,325.168 56.236,325.948 57.178 C 329.250 61.169,338.455 59.375,339.816 54.476 C 341.252 49.308,339.770 47.095,332.389 43.379 C 325.738 40.031,324.249 37.612,327.092 34.769 C 329.700 32.161,334.366 33.644,336.211 37.668 C 337.508 40.494,337.769 40.253,337.769 36.233 C 337.769 34.186,337.600 32.753,337.359 32.753 C 337.134 32.753,336.947 32.984,336.944 33.265 C 336.925 34.797,336.210 34.967,334.568 33.829 C 332.226 32.206,329.160 31.974,326.714 33.236 M96.076 33.026 C 95.445 33.658,95.903 33.982,97.427 33.982 C 99.840 33.982,99.898 34.260,99.898 45.855 C 99.898 57.313,99.840 57.596,97.428 57.982 C 93.423 58.622,96.633 58.956,106.801 58.956 L 117.798 58.956 118.056 56.807 C 118.736 51.147,117.942 49.328,116.528 53.308 C 115.126 57.258,112.776 58.456,107.222 58.055 C 103.894 57.814,104.005 58.234,103.998 45.834 C 103.991 33.743,103.936 33.982,106.735 33.982 C 108.027 33.982,108.495 33.818,108.495 33.367 C 108.495 32.723,96.703 32.399,96.076 33.026 M121.588 33.588 C 121.025 34.641,121.410 35.900,122.471 36.468 C 124.230 37.409,126.207 34.661,124.790 33.245 C 123.991 32.446,122.091 32.650,121.588 33.588 M304.081 33.118 C 302.462 33.379,301.984 34.081,303.254 34.333 C 304.846 34.648,305.015 35.186,305.015 39.913 L 305.015 44.515 303.071 43.516 C 297.587 40.700,291.828 44.618,291.859 51.144 C 291.893 58.195,298.273 61.787,303.936 57.944 L 305.425 56.934 305.425 58.297 C 305.425 59.779,305.215 59.725,308.802 59.160 C 310.354 58.916,310.962 58.137,309.601 58.137 C 307.949 58.137,307.881 57.622,307.881 44.954 L 307.881 32.753 306.755 32.811 C 306.136 32.843,304.932 32.982,304.081 33.118 M122.825 42.989 C 122.262 43.169,121.187 43.335,120.437 43.357 C 118.758 43.408,118.869 44.327,120.590 44.628 C 122.083 44.888,122.268 45.731,122.224 52.047 C 122.189 57.189,121.860 58.137,120.114 58.137 C 119.578 58.137,119.140 58.321,119.140 58.547 C 119.140 58.794,120.846 58.956,123.439 58.956 C 126.032 58.956,127.738 58.794,127.738 58.547 C 127.738 58.321,127.380 58.137,126.942 58.137 C 125.196 58.137,124.872 56.777,124.872 49.448 C 124.872 42.134,124.929 42.315,122.825 42.989 M152.508 43.238 C 144.821 47.445,147.291 59.482,155.840 59.482 C 158.228 59.482,160.131 58.576,161.445 56.813 C 162.714 55.110,161.888 54.927,160.377 56.577 C 156.237 61.097,151.075 57.522,151.075 50.133 L 151.075 48.721 156.410 48.721 C 162.455 48.721,162.760 48.554,161.427 45.984 C 159.848 42.943,155.496 41.602,152.508 43.238 M199.371 43.501 C 197.423 44.483,196.362 46.270,197.218 47.126 C 197.983 47.891,199.352 47.124,199.714 45.726 C 200.304 43.447,203.655 42.728,205.578 44.468 C 206.459 45.265,206.691 48.721,205.864 48.721 C 204.815 48.721,198.703 52.000,197.606 53.152 C 193.646 57.309,198.545 61.056,204.112 58.128 C 205.405 57.447,206.484 56.941,206.507 57.002 C 207.585 59.777,211.056 60.151,212.464 57.643 C 213.226 56.284,212.702 55.601,211.840 56.831 C 210.001 59.458,209.224 57.478,209.216 50.142 C 209.209 43.069,205.366 40.476,199.371 43.501 M230.297 43.137 C 224.963 45.616,223.903 54.352,228.512 57.840 C 232.124 60.573,237.562 59.869,239.335 56.439 C 240.174 54.817,239.357 54.950,237.835 56.683 C 234.171 60.855,229.369 58.163,228.950 51.701 L 228.758 48.745 234.236 48.630 L 239.713 48.516 239.587 47.492 C 239.146 43.938,233.883 41.470,230.297 43.137 M255.681 43.342 C 253.539 44.316,252.568 45.988,253.566 46.986 C 254.488 47.908,255.432 47.316,256.041 45.432 C 256.614 43.657,258.709 42.942,260.799 43.808 C 263.046 44.738,263.658 48.027,261.720 48.753 C 256.088 50.861,252.610 53.505,252.610 55.679 C 252.610 59.311,255.847 60.360,260.229 58.148 C 261.721 57.394,262.699 57.101,262.794 57.380 C 263.756 60.201,268.987 59.803,268.987 56.909 C 268.987 55.838,268.298 55.854,267.956 56.933 C 267.774 57.505,267.404 57.735,266.802 57.649 C 265.953 57.528,265.906 57.272,265.670 51.586 C 265.535 48.321,265.282 45.320,265.108 44.916 C 264.193 42.793,258.849 41.901,255.681 43.342 M272.351 43.099 C 270.475 43.550,270.261 44.251,271.883 44.633 C 272.874 44.867,272.876 44.878,272.989 51.124 L 273.103 57.381 271.863 57.849 C 269.721 58.657,270.491 58.956,274.719 58.956 C 277.175 58.956,278.813 58.792,278.813 58.547 C 278.813 58.321,278.457 58.137,278.023 58.137 C 276.280 58.137,275.947 57.149,275.947 51.980 L 275.947 47.110 277.374 45.683 C 281.637 41.420,283.893 43.338,284.044 51.354 L 284.157 57.381 282.918 57.849 C 280.798 58.649,281.533 58.956,285.568 58.956 C 287.888 58.956,289.458 58.791,289.458 58.547 C 289.458 58.321,289.194 58.137,288.873 58.137 C 287.295 58.137,287.001 57.042,287.001 51.154 L 287.001 45.458 285.806 44.121 C 284.062 42.169,280.580 42.163,277.823 44.106 C 276.172 45.270,275.947 45.335,275.947 44.651 C 275.947 42.549,275.480 42.347,272.351 43.099 M346.981 43.154 C 345.283 43.903,344.228 45.197,344.389 46.333 C 344.608 47.882,346.018 47.548,346.977 45.719 C 348.886 42.077,353.743 42.883,353.731 46.839 L 353.726 48.516 350.900 49.660 C 344.086 52.418,341.721 55.748,344.760 58.305 C 346.409 59.693,347.993 59.661,351.130 58.177 L 353.641 56.989 354.519 58.177 C 355.995 60.173,358.988 59.693,359.813 57.327 C 360.297 55.937,359.743 55.630,359.058 56.909 C 358.535 57.887,357.200 57.990,356.850 57.080 C 356.714 56.724,356.599 54.099,356.596 51.246 C 356.589 45.378,356.277 44.368,354.140 43.296 C 352.441 42.445,348.754 42.371,346.981 43.154 M384.647 43.261 C 376.936 47.335,379.466 59.625,387.991 59.508 C 390.367 59.476,392.290 58.550,393.584 56.813 C 394.853 55.110,394.028 54.927,392.516 56.577 C 388.534 60.924,383.741 58.161,383.504 51.382 L 383.419 48.925 388.892 48.811 L 394.366 48.696 394.116 47.446 C 393.330 43.520,388.335 41.312,384.647 43.261 M128.557 43.742 C 128.557 43.931,128.972 44.275,129.480 44.506 C 130.158 44.815,131.274 46.904,133.677 52.361 C 135.936 57.493,137.132 59.760,137.539 59.682 C 137.862 59.620,139.336 56.893,140.814 53.623 C 143.877 46.844,145.062 44.708,145.949 44.368 C 147.338 43.835,146.419 43.398,143.910 43.398 C 141.346 43.398,140.373 43.892,142.065 44.335 C 142.515 44.453,142.992 44.836,143.127 45.187 C 143.420 45.949,138.795 56.271,138.372 55.801 C 137.664 55.013,133.453 44.985,133.678 44.622 C 133.815 44.399,134.285 44.217,134.722 44.217 C 135.159 44.217,135.517 44.033,135.517 43.808 C 135.517 43.567,134.084 43.398,132.037 43.398 C 130.123 43.398,128.557 43.553,128.557 43.742 M156.947 43.853 C 158.006 44.335,158.854 45.780,158.854 47.102 C 158.854 47.836,158.551 47.902,155.169 47.902 C 151.095 47.902,150.837 47.690,152.168 45.438 C 153.266 43.578,155.048 42.988,156.947 43.853 M235.490 44.490 C 235.926 44.885,236.233 45.729,236.233 46.532 L 236.233 47.902 232.777 47.902 C 228.854 47.902,228.631 47.756,229.598 45.826 C 230.800 43.428,233.612 42.791,235.490 44.490 M360.696 43.780 C 360.696 43.990,361.044 44.272,361.469 44.407 C 362.303 44.672,363.447 46.883,366.835 54.779 C 369.555 61.117,369.489 61.135,373.176 53.019 C 374.813 49.417,376.728 45.842,377.432 45.076 C 379.066 43.296,379.150 43.398,376.049 43.398 C 373.485 43.398,372.512 43.892,374.205 44.335 C 374.654 44.453,375.126 44.820,375.253 45.152 C 375.542 45.905,370.915 56.242,370.489 55.799 C 369.800 55.084,365.585 44.997,365.817 44.621 C 365.954 44.399,366.424 44.217,366.861 44.217 C 367.298 44.217,367.656 44.033,367.656 43.808 C 367.656 43.567,366.223 43.398,364.176 43.398 C 362.262 43.398,360.696 43.570,360.696 43.780 M389.825 44.624 C 392.087 46.886,391.439 47.676,387.206 47.815 C 383.284 47.945,382.969 47.702,384.195 45.490 C 385.455 43.217,388.023 42.822,389.825 44.624 M303.571 45.029 L 305.015 45.921 305.015 50.976 C 305.015 56.634,304.732 57.202,301.457 58.106 C 297.625 59.165,295.189 56.391,295.189 50.968 C 295.189 44.750,298.884 42.132,303.571 45.029 M205.721 56.102 C 203.947 58.062,200.747 58.217,199.873 56.385 C 198.956 54.465,200.226 52.513,203.480 50.837 L 206.141 49.467 206.263 52.418 C 206.356 54.689,206.231 55.539,205.721 56.102 M262.845 52.593 L 262.845 55.646 261.069 56.687 C 258.913 57.951,256.908 58.056,256.309 56.936 C 255.067 54.614,256.499 52.217,260.142 50.520 C 262.948 49.214,262.845 49.135,262.845 52.593 M353.651 52.701 L 353.531 55.862 351.894 56.788 C 349.783 57.982,348.236 57.992,347.413 56.818 C 345.970 54.757,347.351 52.405,351.075 50.584 C 353.867 49.218,353.785 49.151,353.651 52.701 " stroke="none" fill="#000000" fill-rule="evenodd"></path></g></svg>